<?xml version="1.0" encoding="utf-8"?>
<svg version="1.1" viewBox="0 0 256 256" width="256" height="256" xmlns="http://www.w3.org/2000/svg">
  <ellipse style="stroke: rgb(0, 0, 0);" cx="128.001" cy="128.001" rx="107.446" ry="107.445"/>
  <rect x="88.759" y="48.584" width="72.876" height="162.569" style="stroke: rgb(0, 0, 0); fill: rgb(255, 255, 255);"/>
  <path d="M 128 22.158 C 69.546 22.158 22.16 69.544 22.16 127.998 C 22.16 186.452 69.546 233.838 128 233.838 C 186.454 233.838 233.84 186.452 233.84 127.998 C 233.84 69.544 186.454 22.158 128 22.158 L 128 22.158 Z M 128 54.918 C 133.16 55.035 137.55 56.793 141.18 60.191 C 144.52 63.766 146.25 68.131 146.37 73.287 C 146.25 78.443 144.52 82.691 141.18 86.031 C 137.55 89.781 133.16 91.656 128 91.656 C 122.84 91.656 118.6 89.781 115.26 86.031 C 111.51 82.691 109.63 78.443 109.63 73.287 C 109.63 68.131 111.51 63.766 115.26 60.191 C 118.6 56.793 122.84 55.035 128 54.918 L 128 54.918 Z M 111.65 108.71 L 144.44 108.71 L 144.44 201.08 L 111.65 201.08 L 111.65 108.71 Z" fill-rule="evenodd" fill="#72a7cf"/>
</svg>